<?xml version="1.0" encoding="utf-8" ?>
<svg xmlns="http://www.w3.org/2000/svg" xmlns:xlink="http://www.w3.org/1999/xlink" width="1024" height="1024">
	<path fill="#E2E2E6" fill-opacity="0.062745102" d="M508.852 401.155C510.496 401.675 510.622 401.533 511.471 403C510.494 407.833 511.713 413.79 511.727 418.801L511.745 470.5C511.121 471.439 511.249 471.444 511.245 472.5C510.447 473.701 510.747 475.078 510.745 476.5C510.095 477.479 509.977 478.141 509.679 479.271L509.292 479.4L508.755 479C508.554 478.777 508.357 478.533 508.255 478.25C508.032 477.631 508.256 475.867 508.256 475.092L508.26 464.32L508.436 417.316C508.559 412.012 508.331 406.415 508.852 401.155Z"/>
	<path fill="#3D4758" d="M512.63 551.35L687.616 654.393L687.285 654.822C685.751 656.281 682.736 657.559 680.873 658.671L662.181 669.838L611.419 700.375C594.263 710.776 577.012 721.79 558.438 729.483C544.439 735.281 529.954 739.08 514.758 739.696C499.711 739.799 485.315 737.091 471.221 731.823C454.965 725.748 439.996 716.194 425.215 707.251L387.5 684.551L355.425 665.349C349.988 662.12 344.284 659.135 339.056 655.583L512.63 551.35Z"/>
	<path fill="#3D4758" d="M542.241 282.165C551.298 284.423 560.652 291.742 568.7 296.523L613.574 323.466L672.718 358.907C685.455 366.609 698.456 374.122 710.502 382.882C721.67 391.005 731.659 399.741 739.951 410.857C748.051 421.715 753.122 435.213 755.593 448.455C758.458 463.804 758.556 479.383 758.454 494.941L758.178 532.142C757.99 560.171 759.18 589.051 755.184 616.829C754.809 618.052 754.436 619.193 753.865 620.344C745.407 618.31 736.684 612.014 729.194 607.549L702 591.474L592.156 526.533L543.311 498.104L542.241 282.165Z"/>
	<path fill="#3D4758" d="M465.176 288.163L496.046 288.057L495.955 511.977L479.989 511.99L479.955 527.984L463.982 527.998L463.968 543.993L431.977 543.984L431.967 559.981L399.979 559.988L399.954 575.973L389.185 575.877C387.536 575.898 385.52 575.693 383.977 576.248L383.966 591.974L351.985 591.993L351.969 607.981L336.237 607.988C335.693 609.567 335.948 611.509 335.949 613.175L335.969 623.978L301.613 623.801L288.296 623.568L288.052 607.916L272.264 607.613L272.369 400.353L304.032 400.048L304.389 384.346L320.026 384.038L320.38 368.351L352.03 368.049L352.396 352.344L383.777 352.05C384.356 350.536 384.129 348.716 384.147 347.103L384.352 336.357L400.032 336.044L400.362 320.357L432.044 320.061L432.143 311.553C432.148 310.871 432.275 304.445 432.408 304.328C432.866 303.927 457.068 304.095 459.791 304.094C460.463 304.093 463.792 304.278 464.043 304.094C464.055 304.086 464.097 303.187 464.102 303.04C464.196 299.929 463.246 290.061 465.176 288.163Z"/>
	<path fill="#3D4758" d="M545.263 45.8776C552.182 49.492 558.78 54.0083 565.442 58.0875L600.96 79.6834L722.028 153.114L832.039 219.852C853.988 233.142 877.08 245.743 897.795 260.867C910.171 269.903 922.093 280.838 930.239 293.921C938.039 306.447 941.99 320.676 943.679 335.25C946.165 356.703 945.49 378.623 945.597 400.192L945.604 505L945.61 612.717L945.571 650.349C945.498 666.557 945.071 683.318 941.359 699.177C937.027 717.68 928.789 732.432 914.996 745.589C901.149 758.798 884.428 768.725 868.24 778.745L809.353 814.108L687.65 886.75L606.085 935.45L545.277 975.824L545.829 849.265C547.248 847.868 549.154 847.035 550.869 846.045L560.34 840.44L610.303 810.538L756.355 723.114C784.781 706.164 813.004 688.024 842.482 672.974C840.692 656.08 841.815 638.924 841.845 621.973L841.864 532.542L841.834 423.755C841.777 399.216 840.842 374.645 842.819 350.154L544.813 170.601L545.263 45.8776Z"/>
	<path fill="#3D4758" d="M477.516 45.9207L477.61 46.0034C477.612 46.0063 478.299 47.0017 478.303 47.0156C478.812 48.9901 478.088 52.2379 478.034 54.3559L478.005 69.0644L478.048 170.92L182.378 350.739L182.399 672.994L477.938 848.701C478.715 850.629 478.319 853.853 478.335 855.961L478.398 872.706L478.55 940.589C478.58 951.812 479.369 963.291 478.736 974.469C475.98 972.425 473.382 970.169 470.491 968.313C463.758 963.99 456.547 960.489 449.682 956.396L414.757 934.849C407.576 931.025 400.58 926.322 393.626 922.07L362.062 903.037L253.805 837.621L174.771 789.918C157.726 779.618 140.591 770.032 124.52 758.191C112.904 749.632 101.917 739.351 94.105 727.12C86.1881 714.724 81.4995 700.669 79.7123 686.1C77.3119 666.532 78.3363 646.301 78.3401 626.61L78.3336 534.536L78.3205 413.47L78.2618 376.305C78.1585 357.876 78.25 339.443 82.2953 321.357C86.3699 303.139 94.8773 287.607 108.59 274.845C125.126 259.455 145.201 248.207 164.415 236.558L221.025 202.126L388.899 99.9622L477.516 45.9207Z"/>
</svg>
